<svg width="495" height="228" viewBox="0 0 495 228" fill="none" xmlns="http://www.w3.org/2000/svg">
<path d="M10.6308 17.4194C76.0398 17.4194 113.152 17.0389 177.695 17.0389L194.463 0H210C205.071 6.27618 192.749 17.053 187.821 23.3292H46.504L40.89 30H0L10.6308 17.4194Z" fill="#FF0000"/>
<path d="M484.369 17.4194C418.96 17.4194 381.848 17.0389 317.305 17.0389L300.537 0H285C289.929 6.27618 302.251 17.053 307.179 23.3292H448.496L454.11 30H495L484.369 17.4194Z" fill="#FF0000"/>
<path d="M216.63 0H278.679L285 7H210L216.63 0Z" fill="#FF0000"/>
<path d="M206.596 10H244V16H213.894L205.365 25H192L206.596 10Z" fill="#FF0000"/>
<path d="M287.873 10H244V16H279.899L289.661 25H303L287.873 10Z" fill="#FF0000"/>
<path d="M10.6308 210.581C76.0398 210.581 113.152 210.961 177.695 210.961L194.463 228H210C205.071 221.724 192.749 210.947 187.821 204.671H46.504L40.89 198H0L10.6308 210.581Z" fill="#FF0000"/>
<path d="M484.369 210.581C418.96 210.581 381.848 210.961 317.305 210.961L300.537 228H285C289.929 221.724 302.251 210.947 307.179 204.671H448.496L454.11 198H495L484.369 210.581Z" fill="#FF0000"/>
<path d="M216.63 228H278.679L285 221H210L216.63 228Z" fill="#FF0000"/>
<path d="M206.596 218H244V212H213.894L205.365 203H192L206.596 218Z" fill="#FF0000"/>
<path d="M287.873 218H244V212H279.899L289.661 203H303L287.873 218Z" fill="#FF0000"/>
<path d="M249.197 52.3524L296.678 122.936C298.13 125.095 296.583 128 293.981 128H199.019C196.417 128 194.87 125.095 196.322 122.936L243.803 52.3524C245.091 50.4378 247.909 50.4378 249.197 52.3524Z" stroke="#FF0000" stroke-width="1.5"/>
<path d="M244.568 102.576C244.269 99.888 243.992 97.1147 243.736 94.256C243.523 91.3547 243.352 88.496 243.224 85.68C243.096 82.864 243.032 80.1973 243.032 77.68V73.2H249.944V77.68C249.944 80.3253 249.88 83.0987 249.752 86C249.624 88.9013 249.432 91.7813 249.176 94.64C248.963 97.456 248.707 100.101 248.408 102.576H244.568ZM246.296 118.704C244.888 118.704 243.8 118.299 243.032 117.488C242.264 116.635 241.88 115.44 241.88 113.904C241.88 112.496 242.285 111.344 243.096 110.448C243.907 109.552 244.973 109.104 246.296 109.104C247.704 109.104 248.792 109.531 249.56 110.384C250.328 111.195 250.712 112.368 250.712 113.904C250.712 115.312 250.307 116.464 249.496 117.36C248.685 118.256 247.619 118.704 246.296 118.704Z" fill="#FF0000"/>
<circle cx="247" cy="30" r="2" fill="url(#paint0_radial_42_209)"/>
<circle cx="259" cy="30" r="2" fill="url(#paint1_radial_42_209)"/>
<circle cx="270" cy="30" r="2" fill="url(#paint2_radial_42_209)"/>
<circle cx="281" cy="30" r="2" fill="url(#paint3_radial_42_209)" fill-opacity="0.6"/>
<circle cx="235.008" cy="30.0986" r="2" transform="rotate(-179.765 235.008 30.0986)" fill="url(#paint4_radial_42_209)"/>
<circle cx="224.008" cy="30.0534" r="2" transform="rotate(-179.765 224.008 30.0534)" fill="url(#paint5_radial_42_209)"/>
<circle cx="213.008" cy="30.0082" r="2" transform="rotate(-179.765 213.008 30.0082)" fill="url(#paint6_radial_42_209)" fill-opacity="0.6"/>
<path d="M168.528 163V137.8H178.392C180.192 137.8 181.812 138.1 183.252 138.7C184.716 139.3 185.964 140.164 186.996 141.292C188.028 142.42 188.82 143.752 189.372 145.288C189.924 146.824 190.2 148.528 190.2 150.4C190.2 152.272 189.924 153.988 189.372 155.548C188.82 157.084 188.028 158.416 186.996 159.544C185.988 160.648 184.752 161.5 183.288 162.1C181.824 162.7 180.192 163 178.392 163H168.528ZM172.416 159.652L172.308 159.256H178.212C179.484 159.256 180.612 159.052 181.596 158.644C182.604 158.236 183.444 157.66 184.116 156.916C184.812 156.148 185.34 155.212 185.7 154.108C186.06 153.004 186.24 151.768 186.24 150.4C186.24 149.032 186.06 147.808 185.7 146.728C185.34 145.624 184.812 144.688 184.116 143.92C183.42 143.152 182.58 142.564 181.596 142.156C180.612 141.748 179.484 141.544 178.212 141.544H172.2L172.416 141.22V159.652ZM192.127 163L201.883 137.8H205.843L215.527 163H211.387L205.627 147.808C205.555 147.64 205.411 147.232 205.195 146.584C205.003 145.936 204.775 145.216 204.511 144.424C204.247 143.632 204.007 142.912 203.791 142.264C203.575 141.592 203.431 141.16 203.359 140.968L204.187 140.932C204.043 141.34 203.863 141.856 203.647 142.48C203.455 143.104 203.239 143.764 202.999 144.46C202.783 145.156 202.567 145.816 202.351 146.44C202.135 147.04 201.955 147.544 201.811 147.952L196.087 163H192.127ZM196.447 156.736L197.887 152.992H209.335L210.991 156.736H196.447ZM219.962 163V137.8H223.454L238.862 158.428L238.286 158.752C238.19 158.152 238.106 157.504 238.034 156.808C237.962 156.088 237.89 155.332 237.818 154.54C237.77 153.724 237.722 152.872 237.674 151.984C237.65 151.072 237.626 150.124 237.602 149.14C237.578 148.156 237.566 147.136 237.566 146.08V137.8H241.454V163H237.89L222.734 143.128L223.13 142.624C223.25 144.088 223.346 145.336 223.418 146.368C223.514 147.376 223.586 148.24 223.634 148.96C223.706 149.656 223.754 150.232 223.778 150.688C223.802 151.12 223.814 151.48 223.814 151.768C223.838 152.056 223.85 152.308 223.85 152.524V163H219.962ZM259.776 163.36C257.952 163.36 256.248 163.036 254.664 162.388C253.08 161.716 251.688 160.792 250.488 159.616C249.288 158.44 248.352 157.072 247.68 155.512C247.032 153.928 246.708 152.224 246.708 150.4C246.708 148.6 247.032 146.92 247.68 145.36C248.352 143.8 249.276 142.444 250.452 141.292C251.652 140.116 253.044 139.204 254.628 138.556C256.212 137.908 257.916 137.584 259.74 137.584C261.012 137.584 262.248 137.764 263.448 138.124C264.672 138.484 265.776 138.988 266.76 139.636C267.744 140.284 268.548 141.028 269.172 141.868L266.652 144.496C265.932 143.8 265.188 143.224 264.42 142.768C263.676 142.312 262.908 141.964 262.116 141.724C261.324 141.484 260.532 141.364 259.74 141.364C258.444 141.364 257.244 141.592 256.14 142.048C255.06 142.504 254.1 143.14 253.26 143.956C252.444 144.772 251.808 145.732 251.352 146.836C250.896 147.916 250.668 149.104 250.668 150.4C250.668 151.648 250.908 152.836 251.388 153.964C251.868 155.068 252.528 156.04 253.368 156.88C254.232 157.72 255.216 158.38 256.32 158.86C257.448 159.34 258.636 159.58 259.884 159.58C260.82 159.58 261.708 159.448 262.548 159.184C263.388 158.896 264.132 158.5 264.78 157.996C265.428 157.492 265.932 156.916 266.292 156.268C266.652 155.596 266.832 154.888 266.832 154.144V153.424L267.372 153.928H259.668V150.076H270.828C270.876 150.34 270.912 150.604 270.936 150.868C270.96 151.108 270.972 151.348 270.972 151.588C270.996 151.804 271.008 152.02 271.008 152.236C271.008 153.892 270.72 155.404 270.144 156.772C269.568 158.116 268.764 159.28 267.732 160.264C266.724 161.248 265.536 162.016 264.168 162.568C262.824 163.096 261.36 163.36 259.776 163.36ZM276.071 163V137.8H291.947V141.544H279.959V159.256H291.947V163H276.071ZM277.835 151.948V148.204H289.967V151.948H277.835ZM298.184 163V137.8H308.912C310.352 137.8 311.672 138.16 312.872 138.88C314.096 139.576 315.068 140.536 315.788 141.76C316.508 142.96 316.868 144.316 316.868 145.828C316.868 147.196 316.508 148.468 315.788 149.644C315.068 150.82 314.108 151.768 312.908 152.488C311.708 153.184 310.376 153.532 308.912 153.532H302.072V163H298.184ZM313.16 163L306.752 151.624L310.748 150.724L317.876 163.036L313.16 163ZM302.072 149.788H309.272C309.968 149.788 310.592 149.62 311.144 149.284C311.696 148.924 312.128 148.444 312.44 147.844C312.752 147.22 312.908 146.536 312.908 145.792C312.908 144.952 312.704 144.22 312.296 143.596C311.912 142.948 311.36 142.444 310.64 142.084C309.944 141.724 309.152 141.544 308.264 141.544H302.072V149.788ZM322.82 154.324C322.652 152.812 322.496 151.252 322.352 149.644C322.232 148.012 322.136 146.404 322.063 144.82C321.992 143.236 321.956 141.736 321.956 140.32V137.8H325.844V140.32C325.844 141.808 325.808 143.368 325.736 145C325.664 146.632 325.556 148.252 325.412 149.86C325.292 151.444 325.148 152.932 324.979 154.324H322.82ZM323.792 163.396C323 163.396 322.388 163.168 321.956 162.712C321.524 162.232 321.308 161.56 321.308 160.696C321.308 159.904 321.536 159.256 321.992 158.752C322.448 158.248 323.048 157.996 323.792 157.996C324.584 157.996 325.196 158.236 325.628 158.716C326.06 159.172 326.276 159.832 326.276 160.696C326.276 161.488 326.048 162.136 325.592 162.64C325.136 163.144 324.536 163.396 323.792 163.396Z" fill="white"/>
<path d="M67.568 188V176.8H69.12L75.968 185.968L75.712 186.112C75.6693 185.845 75.632 185.557 75.6 185.248C75.568 184.928 75.536 184.592 75.504 184.24C75.4827 183.877 75.4613 183.499 75.44 183.104C75.4293 182.699 75.4187 182.277 75.408 181.84C75.3973 181.403 75.392 180.949 75.392 180.48V176.8H77.12V188H75.536L68.8 179.168L68.976 178.944C69.0293 179.595 69.072 180.149 69.104 180.608C69.1467 181.056 69.1787 181.44 69.2 181.76C69.232 182.069 69.2533 182.325 69.264 182.528C69.2747 182.72 69.28 182.88 69.28 183.008C69.2907 183.136 69.296 183.248 69.296 183.344V188H67.568ZM84.9435 188.16C84.1542 188.16 83.4235 188.016 82.7515 187.728C82.0902 187.44 81.5088 187.04 81.0075 186.528C80.5168 186.005 80.1328 185.397 79.8555 184.704C79.5888 184 79.4555 183.232 79.4555 182.4C79.4555 181.568 79.5888 180.805 79.8555 180.112C80.1328 179.408 80.5168 178.8 81.0075 178.288C81.5088 177.765 82.0902 177.36 82.7515 177.072C83.4235 176.784 84.1542 176.64 84.9435 176.64C85.7328 176.64 86.4582 176.784 87.1195 177.072C87.7915 177.36 88.3728 177.765 88.8635 178.288C89.3648 178.811 89.7488 179.424 90.0155 180.128C90.2928 180.821 90.4315 181.579 90.4315 182.4C90.4315 183.221 90.2928 183.984 90.0155 184.688C89.7488 185.381 89.3648 185.989 88.8635 186.512C88.3728 187.035 87.7915 187.44 87.1195 187.728C86.4582 188.016 85.7328 188.16 84.9435 188.16ZM84.9435 186.48C85.4875 186.48 85.9835 186.379 86.4315 186.176C86.8902 185.973 87.2848 185.691 87.6155 185.328C87.9462 184.955 88.2022 184.523 88.3835 184.032C88.5755 183.531 88.6715 182.987 88.6715 182.4C88.6715 181.813 88.5755 181.275 88.3835 180.784C88.2022 180.283 87.9462 179.851 87.6155 179.488C87.2848 179.115 86.8902 178.827 86.4315 178.624C85.9835 178.421 85.4875 178.32 84.9435 178.32C84.3995 178.32 83.8982 178.421 83.4395 178.624C82.9915 178.827 82.5968 179.109 82.2555 179.472C81.9248 179.835 81.6688 180.267 81.4875 180.768C81.3062 181.259 81.2155 181.803 81.2155 182.4C81.2155 182.987 81.3062 183.531 81.4875 184.032C81.6688 184.533 81.9248 184.965 82.2555 185.328C82.5968 185.691 82.9915 185.973 83.4395 186.176C83.8982 186.379 84.3995 186.48 84.9435 186.48ZM94.4148 188V178.464H91.2788V176.8H99.3748V178.464H96.1428V188H94.4148ZM104.822 188L109.158 176.8H110.918L115.222 188H113.382L110.822 181.248C110.79 181.173 110.726 180.992 110.63 180.704C110.545 180.416 110.443 180.096 110.326 179.744C110.209 179.392 110.102 179.072 110.006 178.784C109.91 178.485 109.846 178.293 109.814 178.208L110.182 178.192C110.118 178.373 110.038 178.603 109.942 178.88C109.857 179.157 109.761 179.451 109.654 179.76C109.558 180.069 109.462 180.363 109.366 180.64C109.27 180.907 109.19 181.131 109.126 181.312L106.582 188H104.822ZM106.742 185.216L107.382 183.552H112.47L113.206 185.216H106.742ZM117.193 188V176.8H118.921V186.336H124.169V188H117.193ZM126.771 188V176.8H128.499V186.336H133.747V188H126.771ZM140.834 188V176.8H142.53L146.61 183.44L145.794 183.424L149.922 176.8H151.522V188H149.794V183.408C149.794 182.448 149.815 181.584 149.858 180.816C149.911 180.048 149.996 179.285 150.114 178.528L150.338 179.12L146.674 184.784H145.618L142.066 179.184L142.242 178.528C142.359 179.243 142.439 179.979 142.482 180.736C142.535 181.483 142.562 182.373 142.562 183.408V188H140.834ZM153.494 188L157.83 176.8H159.59L163.894 188H162.054L159.494 181.248C159.462 181.173 159.398 180.992 159.302 180.704C159.216 180.416 159.115 180.096 158.998 179.744C158.88 179.392 158.774 179.072 158.678 178.784C158.582 178.485 158.518 178.293 158.486 178.208L158.854 178.192C158.79 178.373 158.71 178.603 158.614 178.88C158.528 179.157 158.432 179.451 158.326 179.76C158.23 180.069 158.134 180.363 158.038 180.64C157.942 180.907 157.862 181.131 157.798 181.312L155.254 188H153.494ZM155.414 185.216L156.054 183.552H161.142L161.878 185.216H155.414ZM165.865 188V176.8H167.417L174.265 185.968L174.009 186.112C173.966 185.845 173.929 185.557 173.897 185.248C173.865 184.928 173.833 184.592 173.801 184.24C173.78 183.877 173.758 183.499 173.737 183.104C173.726 182.699 173.716 182.277 173.705 181.84C173.694 181.403 173.689 180.949 173.689 180.48V176.8H175.417V188H173.833L167.097 179.168L167.273 178.944C167.326 179.595 167.369 180.149 167.401 180.608C167.444 181.056 167.476 181.44 167.497 181.76C167.529 182.069 167.55 182.325 167.561 182.528C167.572 182.72 167.577 182.88 167.577 183.008C167.588 183.136 167.593 183.248 167.593 183.344V188H165.865ZM178.552 188V176.8H182.936C183.736 176.8 184.456 176.933 185.096 177.2C185.747 177.467 186.302 177.851 186.76 178.352C187.219 178.853 187.571 179.445 187.816 180.128C188.062 180.811 188.184 181.568 188.184 182.4C188.184 183.232 188.062 183.995 187.816 184.688C187.571 185.371 187.219 185.963 186.76 186.464C186.312 186.955 185.763 187.333 185.112 187.6C184.462 187.867 183.736 188 182.936 188H178.552ZM180.28 186.512L180.232 186.336H182.856C183.422 186.336 183.923 186.245 184.36 186.064C184.808 185.883 185.182 185.627 185.48 185.296C185.79 184.955 186.024 184.539 186.184 184.048C186.344 183.557 186.424 183.008 186.424 182.4C186.424 181.792 186.344 181.248 186.184 180.768C186.024 180.277 185.79 179.861 185.48 179.52C185.171 179.179 184.798 178.917 184.36 178.736C183.923 178.555 183.422 178.464 182.856 178.464H180.184L180.28 178.32V186.512ZM189.041 188L193.377 176.8H195.137L199.441 188H197.601L195.041 181.248C195.009 181.173 194.945 180.992 194.849 180.704C194.763 180.416 194.662 180.096 194.545 179.744C194.427 179.392 194.321 179.072 194.225 178.784C194.129 178.485 194.065 178.293 194.033 178.208L194.401 178.192C194.337 178.373 194.257 178.603 194.161 178.88C194.075 179.157 193.979 179.451 193.873 179.76C193.777 180.069 193.681 180.363 193.585 180.64C193.489 180.907 193.409 181.131 193.345 181.312L190.801 188H189.041ZM190.961 185.216L191.601 183.552H196.689L197.425 185.216H190.961ZM202.743 188V178.464H199.607V176.8H207.703V178.464H204.471V188H202.743ZM214.037 188.16C213.248 188.16 212.517 188.016 211.845 187.728C211.184 187.44 210.603 187.04 210.101 186.528C209.611 186.005 209.227 185.397 208.949 184.704C208.683 184 208.549 183.232 208.549 182.4C208.549 181.568 208.683 180.805 208.949 180.112C209.227 179.408 209.611 178.8 210.101 178.288C210.603 177.765 211.184 177.36 211.845 177.072C212.517 176.784 213.248 176.64 214.037 176.64C214.827 176.64 215.552 176.784 216.213 177.072C216.885 177.36 217.467 177.765 217.957 178.288C218.459 178.811 218.843 179.424 219.109 180.128C219.387 180.821 219.525 181.579 219.525 182.4C219.525 183.221 219.387 183.984 219.109 184.688C218.843 185.381 218.459 185.989 217.957 186.512C217.467 187.035 216.885 187.44 216.213 187.728C215.552 188.016 214.827 188.16 214.037 188.16ZM214.037 186.48C214.581 186.48 215.077 186.379 215.525 186.176C215.984 185.973 216.379 185.691 216.709 185.328C217.04 184.955 217.296 184.523 217.477 184.032C217.669 183.531 217.765 182.987 217.765 182.4C217.765 181.813 217.669 181.275 217.477 180.784C217.296 180.283 217.04 179.851 216.709 179.488C216.379 179.115 215.984 178.827 215.525 178.624C215.077 178.421 214.581 178.32 214.037 178.32C213.493 178.32 212.992 178.421 212.533 178.624C212.085 178.827 211.691 179.109 211.349 179.472C211.019 179.835 210.763 180.267 210.581 180.768C210.4 181.259 210.309 181.803 210.309 182.4C210.309 182.987 210.4 183.531 210.581 184.032C210.763 184.533 211.019 184.965 211.349 185.328C211.691 185.691 212.085 185.973 212.533 186.176C212.992 186.379 213.493 186.48 214.037 186.48ZM221.865 188V176.8H226.633C227.273 176.8 227.86 176.96 228.393 177.28C228.937 177.589 229.369 178.016 229.689 178.56C230.009 179.093 230.169 179.696 230.169 180.368C230.169 180.976 230.009 181.541 229.689 182.064C229.369 182.587 228.942 183.008 228.409 183.328C227.876 183.637 227.284 183.792 226.633 183.792H223.593V188H221.865ZM228.521 188L225.673 182.944L227.449 182.544L230.617 188.016L228.521 188ZM223.593 182.128H226.793C227.102 182.128 227.38 182.053 227.625 181.904C227.87 181.744 228.062 181.531 228.201 181.264C228.34 180.987 228.409 180.683 228.409 180.352C228.409 179.979 228.318 179.653 228.137 179.376C227.966 179.088 227.721 178.864 227.401 178.704C227.092 178.544 226.74 178.464 226.345 178.464H223.593V182.128ZM235.201 188V182.416L235.313 183.2L230.785 176.8H232.865L236.321 181.76L235.921 181.712L239.041 176.8H241.025L236.689 183.376L236.929 182.288V188H235.201ZM247.24 188V176.8H248.968V188H247.24ZM248.008 183.232V181.568H253.784V183.232H248.008ZM248.008 178.464V176.8H254.504V178.464H248.008ZM256.449 188V186.4H258.257V178.4H256.449V176.8H261.793V178.4H259.985V186.4H261.793V188H256.449ZM264.506 188V176.8H271.562V178.464H266.234V186.336H271.562V188H264.506ZM265.289 183.088V181.424H270.682V183.088H265.289ZM274.334 188V176.8H276.062V186.336H281.31V188H274.334ZM283.912 188V176.8H288.296C289.096 176.8 289.816 176.933 290.456 177.2C291.106 177.467 291.661 177.851 292.12 178.352C292.578 178.853 292.93 179.445 293.176 180.128C293.421 180.811 293.544 181.568 293.544 182.4C293.544 183.232 293.421 183.995 293.176 184.688C292.93 185.371 292.578 185.963 292.12 186.464C291.672 186.955 291.122 187.333 290.472 187.6C289.821 187.867 289.096 188 288.296 188H283.912ZM285.64 186.512L285.592 186.336H288.216C288.781 186.336 289.282 186.245 289.72 186.064C290.168 185.883 290.541 185.627 290.84 185.296C291.149 184.955 291.384 184.539 291.544 184.048C291.704 183.557 291.784 183.008 291.784 182.4C291.784 181.792 291.704 181.248 291.544 180.768C291.384 180.277 291.149 179.861 290.84 179.52C290.53 179.179 290.157 178.917 289.72 178.736C289.282 178.555 288.781 178.464 288.216 178.464H285.544L285.64 178.32V186.512ZM299.337 188.16C298.729 188.16 298.163 188.08 297.641 187.92C297.129 187.76 296.659 187.52 296.233 187.2C295.817 186.869 295.443 186.464 295.113 185.984L296.297 184.624C296.819 185.371 297.321 185.888 297.801 186.176C298.281 186.464 298.851 186.608 299.513 186.608C299.918 186.608 300.286 186.544 300.617 186.416C300.947 186.288 301.209 186.112 301.401 185.888C301.593 185.664 301.689 185.408 301.689 185.12C301.689 184.928 301.657 184.747 301.593 184.576C301.529 184.405 301.427 184.251 301.289 184.112C301.161 183.973 300.99 183.845 300.777 183.728C300.574 183.611 300.334 183.509 300.057 183.424C299.779 183.328 299.459 183.248 299.097 183.184C298.521 183.067 298.019 182.912 297.593 182.72C297.166 182.528 296.809 182.288 296.521 182C296.233 181.712 296.019 181.387 295.881 181.024C295.742 180.651 295.673 180.235 295.673 179.776C295.673 179.328 295.769 178.912 295.961 178.528C296.163 178.144 296.435 177.813 296.777 177.536C297.129 177.248 297.539 177.029 298.009 176.88C298.478 176.72 298.985 176.64 299.529 176.64C300.105 176.64 300.633 176.715 301.113 176.864C301.593 177.013 302.019 177.237 302.392 177.536C302.766 177.824 303.075 178.181 303.321 178.608L302.105 179.808C301.891 179.456 301.651 179.163 301.385 178.928C301.118 178.683 300.825 178.501 300.505 178.384C300.185 178.256 299.843 178.192 299.481 178.192C299.065 178.192 298.702 178.256 298.393 178.384C298.083 178.512 297.838 178.693 297.657 178.928C297.486 179.152 297.401 179.419 297.401 179.728C297.401 179.952 297.443 180.16 297.529 180.352C297.614 180.533 297.742 180.699 297.913 180.848C298.094 180.987 298.334 181.115 298.633 181.232C298.931 181.339 299.289 181.435 299.705 181.52C300.291 181.648 300.814 181.813 301.273 182.016C301.731 182.208 302.121 182.437 302.441 182.704C302.761 182.971 303.001 183.269 303.161 183.6C303.331 183.931 303.417 184.288 303.417 184.672C303.417 185.387 303.251 186.005 302.921 186.528C302.59 187.051 302.121 187.456 301.513 187.744C300.905 188.021 300.179 188.16 299.337 188.16ZM309.181 188L313.517 176.8H315.277L319.581 188H317.741L315.181 181.248C315.149 181.173 315.085 180.992 314.989 180.704C314.904 180.416 314.803 180.096 314.685 179.744C314.568 179.392 314.461 179.072 314.365 178.784C314.269 178.485 314.205 178.293 314.173 178.208L314.541 178.192C314.477 178.373 314.397 178.603 314.301 178.88C314.216 179.157 314.12 179.451 314.013 179.76C313.917 180.069 313.821 180.363 313.725 180.64C313.629 180.907 313.549 181.131 313.485 181.312L310.941 188H309.181ZM311.101 185.216L311.741 183.552H316.829L317.565 185.216H311.101ZM321.552 188V176.8H326.32C326.96 176.8 327.547 176.96 328.08 177.28C328.624 177.589 329.056 178.016 329.376 178.56C329.696 179.093 329.856 179.696 329.856 180.368C329.856 180.976 329.696 181.541 329.376 182.064C329.056 182.587 328.63 183.008 328.096 183.328C327.563 183.637 326.971 183.792 326.32 183.792H323.28V188H321.552ZM328.208 188L325.36 182.944L327.136 182.544L330.304 188.016L328.208 188ZM323.28 182.128H326.48C326.79 182.128 327.067 182.053 327.312 181.904C327.558 181.744 327.75 181.531 327.888 181.264C328.027 180.987 328.096 180.683 328.096 180.352C328.096 179.979 328.006 179.653 327.824 179.376C327.654 179.088 327.408 178.864 327.088 178.704C326.779 178.544 326.427 178.464 326.032 178.464H323.28V182.128ZM332.677 188V176.8H339.733V178.464H334.405V186.336H339.733V188H332.677ZM333.461 183.088V181.424H338.853V183.088H333.461ZM346.99 188V176.8H348.718V188H346.99ZM347.758 183.232V181.568H353.534V183.232H347.758ZM347.758 178.464V176.8H354.254V178.464H347.758ZM356.199 188V186.4H358.007V178.4H356.199V176.8H361.543V178.4H359.735V186.4H361.543V188H356.199ZM364.256 188V176.8H365.984V186.336H371.232V188H364.256ZM373.834 188V176.8H375.562V186.336H380.81V188H373.834ZM383.412 188V176.8H390.468V178.464H385.14V186.336H390.468V188H383.412ZM384.196 183.088V181.424H389.588V183.088H384.196ZM393.24 188V176.8H397.624C398.424 176.8 399.144 176.933 399.784 177.2C400.435 177.467 400.989 177.851 401.448 178.352C401.907 178.853 402.259 179.445 402.504 180.128C402.749 180.811 402.872 181.568 402.872 182.4C402.872 183.232 402.749 183.995 402.504 184.688C402.259 185.371 401.907 185.963 401.448 186.464C401 186.955 400.451 187.333 399.8 187.6C399.149 187.867 398.424 188 397.624 188H393.24ZM394.968 186.512L394.92 186.336H397.544C398.109 186.336 398.611 186.245 399.048 186.064C399.496 185.883 399.869 185.627 400.168 185.296C400.477 184.955 400.712 184.539 400.872 184.048C401.032 183.557 401.112 183.008 401.112 182.4C401.112 181.792 401.032 181.248 400.872 180.768C400.712 180.277 400.477 179.861 400.168 179.52C399.859 179.179 399.485 178.917 399.048 178.736C398.611 178.555 398.109 178.464 397.544 178.464H394.872L394.968 178.32V186.512ZM409.277 188V186.4H411.085V178.4H409.277V176.8H414.621V178.4H412.813V186.4H414.621V188H409.277ZM417.334 188V176.8H418.886L425.734 185.968L425.478 186.112C425.435 185.845 425.398 185.557 425.366 185.248C425.334 184.928 425.302 184.592 425.27 184.24C425.248 183.877 425.227 183.499 425.206 183.104C425.195 182.699 425.184 182.277 425.174 181.84C425.163 181.403 425.158 180.949 425.158 180.48V176.8H426.886V188H425.302L418.566 179.168L418.742 178.944C418.795 179.595 418.838 180.149 418.87 180.608C418.912 181.056 418.944 181.44 418.966 181.76C418.998 182.069 419.019 182.325 419.03 182.528C419.04 182.72 419.046 182.88 419.046 183.008C419.056 183.136 419.062 183.248 419.062 183.344V188H417.334Z" fill="white"/>
<path d="M154.5 135H160.5L138 166H132L154.5 135Z" fill="#FF0000"/>
<path d="M161 143V151L150 166H144L161 143Z" fill="#FF0000"/>
<path d="M161 159V165V166H156L161 159Z" fill="#FF0000"/>
<path d="M142.5 135H148.5L126 166H120L142.5 135Z" fill="#FF0000"/>
<path d="M130.5 135H136.5L114 166H108L130.5 135Z" fill="#FF0000"/>
<path d="M118.5 135H124.5L102 166H96L118.5 135Z" fill="#FF0000"/>
<path d="M106.5 135H112.5L90 166H84L106.5 135Z" fill="#FF0000"/>
<path d="M94.5 135H100.5L78 166H72L94.5 135Z" fill="#FF0000"/>
<path d="M82.5 135H88.5L66 166H60L82.5 135Z" fill="#FF0000"/>
<path d="M70.5 135H76.5L54 166H48L70.5 135Z" fill="#FF0000"/>
<path d="M58.5 135H64.5L49 156V148L58.5 135Z" fill="#FF0000"/>
<path d="M49 135H52.5L49 139.5V136V135Z" fill="#FF0000"/>
<path d="M440.5 135H446.5L424 166H418L440.5 135Z" fill="#FF0000"/>
<path d="M447 143V151L436 166H430L447 143Z" fill="#FF0000"/>
<path d="M447 159V165V166H442L447 159Z" fill="#FF0000"/>
<path d="M428.5 135H434.5L412 166H406L428.5 135Z" fill="#FF0000"/>
<path d="M416.5 135H422.5L400 166H394L416.5 135Z" fill="#FF0000"/>
<path d="M404.5 135H410.5L388 166H382L404.5 135Z" fill="#FF0000"/>
<path d="M392.5 135H398.5L376 166H370L392.5 135Z" fill="#FF0000"/>
<path d="M380.5 135H386.5L364 166H358L380.5 135Z" fill="#FF0000"/>
<path d="M368.5 135H374.5L352 166H346L368.5 135Z" fill="#FF0000"/>
<path d="M356.5 135H362.5L340 166H334L356.5 135Z" fill="#FF0000"/>
<path d="M344.5 135H350.5L335 156V148L344.5 135Z" fill="#FF0000"/>
<path d="M335 135H338.5L335 139.5V136V135Z" fill="#FF0000"/>
<path d="M188 34H196L166 56H158L188 34Z" fill="#FF0000"/>
<path d="M196 40V45.5652L181.765 56H174L196 40Z" fill="#FF0000"/>
<path d="M196 51V55.2857V56H189L196 51Z" fill="#FF0000"/>
<path d="M172 34H180L150 56H142L172 34Z" fill="#FF0000"/>
<path d="M157 34H165L135 56H127L157 34Z" fill="#FF0000"/>
<path d="M141 34H149L119 56H111L141 34Z" fill="#FF0000"/>
<path d="M125 34H133L103 56H95L125 34Z" fill="#FF0000"/>
<path d="M109 34H117L87 56H79L109 34Z" fill="#FF0000"/>
<path d="M94 34H102L72 56H64L94 34Z" fill="#FF0000"/>
<path d="M78 34H86L56 56H48L78 34Z" fill="#FF0000"/>
<path d="M61.871 34H70L49 49V43.2857L61.871 34Z" fill="#FF0000"/>
<path d="M49 34H55L49 37V34.6667V34Z" fill="#FF0000"/>
<path d="M439 34H447L417 56H409L439 34Z" fill="#FF0000"/>
<path d="M447 40V45.5652L432.765 56H425L447 40Z" fill="#FF0000"/>
<path d="M447 51V55.2857V56H440L447 51Z" fill="#FF0000"/>
<path d="M423 34H431L401 56H393L423 34Z" fill="#FF0000"/>
<path d="M407 34H415L385 56H377L407 34Z" fill="#FF0000"/>
<path d="M391.789 34H400L369.211 56H361L391.789 34Z" fill="#FF0000"/>
<path d="M375.789 34H384L353.211 56H345L375.789 34Z" fill="#FF0000"/>
<path d="M360 34H368L338 56H330L360 34Z" fill="#FF0000"/>
<path d="M344 34H352L322 56H314L344 34Z" fill="#FF0000"/>
<path d="M328 34H336L306 56H298L328 34Z" fill="#FF0000"/>
<path d="M311.871 34H320L299 49V43.2857L311.871 34Z" fill="#FF0000"/>
<path d="M299 34H305L299 37V34.6667V34Z" fill="#FF0000"/>
<path d="M171 61.5L161 73.8519V114.148L171 126.5" stroke="#FF0000" stroke-opacity="0.69"/>
<path d="M322 62L332 74.3519V114.648L322 127" stroke="#FF0000" stroke-opacity="0.69"/>
<path d="M116.5 80L119 77.5L123 77H124V110H123L119 109.5L116.5 107L115.5 104.5L115 100.5V93.5V87L115.5 83L116.5 80Z" fill="url(#paint7_linear_42_209)"/>
<g filter="url(#filter0_f_42_209)">
<path d="M116.5 80L119 77.5L123 77H124V110H123L119 109.5L116.5 107L115.5 104.5L115 100.5V93.5V87L115.5 83L116.5 80Z" fill="url(#paint8_linear_42_209)"/>
</g>
<path d="M102.5 84.0909L105 82.3485L109 82H110V105H109L105 104.652L102.5 102.909L101.5 101.167L101 98.3788V93.5V88.9697L101.5 86.1818L102.5 84.0909Z" fill="url(#paint9_linear_42_209)"/>
<g filter="url(#filter1_f_42_209)">
<path d="M102.5 84.0909L105 82.3485L109 82H110V105H109L105 104.652L102.5 102.909L101.5 101.167L101 98.3788V93.5V88.9697L101.5 86.1818L102.5 84.0909Z" fill="url(#paint10_linear_42_209)"/>
</g>
<path d="M87.5 87.3636L90 86.2273L94 86H95V101H94L90 100.773L87.5 99.6364L86.5 98.5L86 96.6818V93.5V90.5455L86.5 88.7273L87.5 87.3636Z" fill="url(#paint11_linear_42_209)"/>
<g filter="url(#filter2_f_42_209)">
<path d="M87.5 87.3636L90 86.2273L94 86H95V101H94L90 100.773L87.5 99.6364L86.5 98.5L86 96.6818V93.5V90.5455L86.5 88.7273L87.5 87.3636Z" fill="url(#paint12_linear_42_209)"/>
</g>
<path d="M377.5 80L375 77.5L371 77H370V110H371L375 109.5L377.5 107L378.5 104.5L379 100.5V93.5V87L378.5 83L377.5 80Z" fill="url(#paint13_linear_42_209)"/>
<g filter="url(#filter3_f_42_209)">
<path d="M377.5 80L375 77.5L371 77H370V110H371L375 109.5L377.5 107L378.5 104.5L379 100.5V93.5V87L378.5 83L377.5 80Z" fill="url(#paint14_linear_42_209)"/>
</g>
<path d="M392.5 84.0909L390 82.3485L386 82H385V105H386L390 104.652L392.5 102.909L393.5 101.167L394 98.3788V93.5V88.9697L393.5 86.1818L392.5 84.0909Z" fill="url(#paint15_linear_42_209)"/>
<g filter="url(#filter4_f_42_209)">
<path d="M392.5 84.0909L390 82.3485L386 82H385V105H386L390 104.652L392.5 102.909L393.5 101.167L394 98.3788V93.5V88.9697L393.5 86.1818L392.5 84.0909Z" fill="url(#paint16_linear_42_209)"/>
</g>
<path d="M407.5 87.3636L405 86.2273L401 86H400V101H401L405 100.773L407.5 99.6364L408.5 98.5L409 96.6818V93.5V90.5455L408.5 88.7273L407.5 87.3636Z" fill="url(#paint17_linear_42_209)"/>
<g filter="url(#filter5_f_42_209)">
<path d="M407.5 87.3636L405 86.2273L401 86H400V101H401L405 100.773L407.5 99.6364L408.5 98.5L409 96.6818V93.5V90.5455L408.5 88.7273L407.5 87.3636Z" fill="url(#paint18_linear_42_209)"/>
</g>
<defs>
<filter id="filter0_f_42_209" x="111" y="73" width="17" height="41" filterUnits="userSpaceOnUse" color-interpolation-filters="sRGB">
<feFlood flood-opacity="0" result="BackgroundImageFix"/>
<feBlend mode="normal" in="SourceGraphic" in2="BackgroundImageFix" result="shape"/>
<feGaussianBlur stdDeviation="2" result="effect1_foregroundBlur_42_209"/>
</filter>
<filter id="filter1_f_42_209" x="97" y="78" width="17" height="31" filterUnits="userSpaceOnUse" color-interpolation-filters="sRGB">
<feFlood flood-opacity="0" result="BackgroundImageFix"/>
<feBlend mode="normal" in="SourceGraphic" in2="BackgroundImageFix" result="shape"/>
<feGaussianBlur stdDeviation="2" result="effect1_foregroundBlur_42_209"/>
</filter>
<filter id="filter2_f_42_209" x="82" y="82" width="17" height="23" filterUnits="userSpaceOnUse" color-interpolation-filters="sRGB">
<feFlood flood-opacity="0" result="BackgroundImageFix"/>
<feBlend mode="normal" in="SourceGraphic" in2="BackgroundImageFix" result="shape"/>
<feGaussianBlur stdDeviation="2" result="effect1_foregroundBlur_42_209"/>
</filter>
<filter id="filter3_f_42_209" x="366" y="73" width="17" height="41" filterUnits="userSpaceOnUse" color-interpolation-filters="sRGB">
<feFlood flood-opacity="0" result="BackgroundImageFix"/>
<feBlend mode="normal" in="SourceGraphic" in2="BackgroundImageFix" result="shape"/>
<feGaussianBlur stdDeviation="2" result="effect1_foregroundBlur_42_209"/>
</filter>
<filter id="filter4_f_42_209" x="381" y="78" width="17" height="31" filterUnits="userSpaceOnUse" color-interpolation-filters="sRGB">
<feFlood flood-opacity="0" result="BackgroundImageFix"/>
<feBlend mode="normal" in="SourceGraphic" in2="BackgroundImageFix" result="shape"/>
<feGaussianBlur stdDeviation="2" result="effect1_foregroundBlur_42_209"/>
</filter>
<filter id="filter5_f_42_209" x="396" y="82" width="17" height="23" filterUnits="userSpaceOnUse" color-interpolation-filters="sRGB">
<feFlood flood-opacity="0" result="BackgroundImageFix"/>
<feBlend mode="normal" in="SourceGraphic" in2="BackgroundImageFix" result="shape"/>
<feGaussianBlur stdDeviation="2" result="effect1_foregroundBlur_42_209"/>
</filter>
<radialGradient id="paint0_radial_42_209" cx="0" cy="0" r="1" gradientUnits="userSpaceOnUse" gradientTransform="translate(247 30) rotate(90) scale(2)">
<stop stop-color="#FF0000"/>
<stop offset="0.625" stop-color="#FF0000" stop-opacity="0.78125"/>
<stop offset="1" stop-color="#FF0000" stop-opacity="0"/>
</radialGradient>
<radialGradient id="paint1_radial_42_209" cx="0" cy="0" r="1" gradientUnits="userSpaceOnUse" gradientTransform="translate(259 30) rotate(90) scale(2)">
<stop offset="0.28125" stop-color="#FF0000"/>
<stop offset="1" stop-color="#FF0000" stop-opacity="0"/>
</radialGradient>
<radialGradient id="paint2_radial_42_209" cx="0" cy="0" r="1" gradientUnits="userSpaceOnUse" gradientTransform="translate(270 30) rotate(90) scale(2)">
<stop stop-color="#FF0000"/>
<stop offset="1" stop-color="#FF0000" stop-opacity="0"/>
</radialGradient>
<radialGradient id="paint3_radial_42_209" cx="0" cy="0" r="1" gradientUnits="userSpaceOnUse" gradientTransform="translate(281 30) rotate(90) scale(2)">
<stop stop-color="#FF0000"/>
<stop offset="0.260417" stop-color="#FF0000" stop-opacity="0.46875"/>
<stop offset="1" stop-color="#FF0000" stop-opacity="0"/>
</radialGradient>
<radialGradient id="paint4_radial_42_209" cx="0" cy="0" r="1" gradientUnits="userSpaceOnUse" gradientTransform="translate(235.008 30.0986) rotate(90) scale(2)">
<stop offset="0.28125" stop-color="#FF0000"/>
<stop offset="1" stop-color="#FF0000" stop-opacity="0"/>
</radialGradient>
<radialGradient id="paint5_radial_42_209" cx="0" cy="0" r="1" gradientUnits="userSpaceOnUse" gradientTransform="translate(224.008 30.0534) rotate(90) scale(2)">
<stop stop-color="#FF0000"/>
<stop offset="1" stop-color="#FF0000" stop-opacity="0"/>
</radialGradient>
<radialGradient id="paint6_radial_42_209" cx="0" cy="0" r="1" gradientUnits="userSpaceOnUse" gradientTransform="translate(213.008 30.0082) rotate(90) scale(2)">
<stop stop-color="#FF0000"/>
<stop offset="0.260417" stop-color="#FF0000" stop-opacity="0.46875"/>
<stop offset="1" stop-color="#FF0000" stop-opacity="0"/>
</radialGradient>
<linearGradient id="paint7_linear_42_209" x1="127.5" y1="77" x2="90.5" y2="77" gradientUnits="userSpaceOnUse">
<stop stop-color="#FF0000"/>
<stop offset="0.371195" stop-color="#FF0000" stop-opacity="0"/>
</linearGradient>
<linearGradient id="paint8_linear_42_209" x1="127.5" y1="77" x2="90.5" y2="77" gradientUnits="userSpaceOnUse">
<stop stop-color="#FF0000" stop-opacity="0.94"/>
<stop offset="0.371195" stop-color="#FF0000" stop-opacity="0"/>
</linearGradient>
<linearGradient id="paint9_linear_42_209" x1="113.5" y1="82" x2="76.5" y2="82" gradientUnits="userSpaceOnUse">
<stop stop-color="#FF0000" stop-opacity="0.42"/>
<stop offset="0.371195" stop-color="#FF0000" stop-opacity="0"/>
</linearGradient>
<linearGradient id="paint10_linear_42_209" x1="113.5" y1="82" x2="76.5" y2="82" gradientUnits="userSpaceOnUse">
<stop offset="0.0833333" stop-color="#FF0000" stop-opacity="0.37"/>
<stop offset="0.265625" stop-color="#FF0000" stop-opacity="0"/>
<stop offset="0.864583" stop-color="#FF0000" stop-opacity="0.13"/>
</linearGradient>
<linearGradient id="paint11_linear_42_209" x1="98.5" y1="86" x2="61.5" y2="86" gradientUnits="userSpaceOnUse">
<stop stop-color="#FF0000" stop-opacity="0.26"/>
<stop offset="0.182292" stop-color="#FF0000" stop-opacity="0"/>
</linearGradient>
<linearGradient id="paint12_linear_42_209" x1="98.5" y1="86" x2="61.5" y2="86" gradientUnits="userSpaceOnUse">
<stop offset="0.0833333" stop-color="#FF0000" stop-opacity="0.33"/>
<stop offset="0.265625" stop-color="#FF0000" stop-opacity="0"/>
<stop offset="0.864583" stop-color="#FF0000" stop-opacity="0.13"/>
</linearGradient>
<linearGradient id="paint13_linear_42_209" x1="366.5" y1="77" x2="403.5" y2="77" gradientUnits="userSpaceOnUse">
<stop stop-color="#FF0000"/>
<stop offset="0.371195" stop-color="#FF0000" stop-opacity="0"/>
</linearGradient>
<linearGradient id="paint14_linear_42_209" x1="366.5" y1="77" x2="403.5" y2="77" gradientUnits="userSpaceOnUse">
<stop stop-color="#FF0000" stop-opacity="0.94"/>
<stop offset="0.371195" stop-color="#FF0000" stop-opacity="0"/>
</linearGradient>
<linearGradient id="paint15_linear_42_209" x1="381.5" y1="82" x2="418.5" y2="82" gradientUnits="userSpaceOnUse">
<stop stop-color="#FF0000" stop-opacity="0.42"/>
<stop offset="0.371195" stop-color="#FF0000" stop-opacity="0"/>
</linearGradient>
<linearGradient id="paint16_linear_42_209" x1="381.5" y1="82" x2="418.5" y2="82" gradientUnits="userSpaceOnUse">
<stop offset="0.0833333" stop-color="#FF0000" stop-opacity="0.37"/>
<stop offset="0.265625" stop-color="#FF0000" stop-opacity="0"/>
<stop offset="0.864583" stop-color="#FF0000" stop-opacity="0.13"/>
</linearGradient>
<linearGradient id="paint17_linear_42_209" x1="396.5" y1="86" x2="433.5" y2="86" gradientUnits="userSpaceOnUse">
<stop stop-color="#FF0000" stop-opacity="0.26"/>
<stop offset="0.182292" stop-color="#FF0000" stop-opacity="0"/>
</linearGradient>
<linearGradient id="paint18_linear_42_209" x1="396.5" y1="86" x2="433.5" y2="86" gradientUnits="userSpaceOnUse">
<stop offset="0.0833333" stop-color="#FF0000" stop-opacity="0.33"/>
<stop offset="0.265625" stop-color="#FF0000" stop-opacity="0"/>
<stop offset="0.864583" stop-color="#FF0000" stop-opacity="0.13"/>
</linearGradient>
</defs>
</svg>
