<svg width="70" height="50" viewBox="0 0 230 88" fill="none" xmlns="http://www.w3.org/2000/svg">
<path d="M227.614 56.1886C225.331 65.5588 220.732 72.0151 214.403 76.4976C208.032 81.0095 199.808 83.5912 190.182 84.9944C180.561 86.3971 169.658 86.6071 158.001 86.46C153.351 86.4014 148.565 86.2853 143.699 86.1672C136.43 85.9909 128.982 85.8103 121.543 85.8103C96.8518 85.8103 74.1777 81.3307 57.7332 73.9185C41.177 66.4561 31.4801 56.3037 31.4662 45.2031C31.6573 39.3971 34.193 33.7774 38.7681 28.5689C39.0184 28.2839 39.1635 27.9201 39.173 27.5336C39.1816 27.1823 39.0768 26.9019 38.989 26.7255C38.8248 26.3958 38.581 26.1557 38.4286 26.0176C38.0926 25.713 37.6223 25.3994 37.1175 25.0946C36.0784 24.4672 34.5586 23.6807 32.7578 22.8017C29.1884 21.0594 24.3476 18.8737 19.5311 16.6989L19.3459 16.6153C14.9268 14.62 10.5423 12.6388 7.13744 11.0006C7.28924 11.0352 7.44293 11.0705 7.59845 11.1063C11.9671 12.1133 17.6624 13.5824 23.3953 15.0622L23.543 15.1003C29.2139 16.5642 34.91 18.0345 39.3248 19.0569C41.5479 19.5717 43.4759 19.9799 44.9245 20.216C45.6441 20.3333 46.285 20.4147 46.8014 20.4399C47.0575 20.4524 47.3242 20.4533 47.5748 20.4264C47.7731 20.405 48.1875 20.3472 48.5687 20.0874C64.9893 8.89523 91.6237 1.5 121.543 1.5C159.067 1.5 178.201 4.80568 193.913 11.3538C210.084 18.6971 219.308 26.5706 224.088 34.2124C228.84 41.8093 229.289 49.3184 227.614 56.1886Z" fill="white" fill-opacity="0.75" stroke="black" stroke-width="3"/>
</svg>
