<svg width="180" height="567" viewBox="0 0 180 567" fill="none" xmlns="http://www.w3.org/2000/svg">
<g clip-path="url(#clip0_4_32784)">
<g filter="url(#filter0_f_4_32784)">
<path fill-rule="evenodd" clip-rule="evenodd" d="M16.2958 73.5229C16.8198 108.282 54.0317 135.907 99.411 135.225C144.79 134.544 181.153 105.813 180.629 71.0539C180.105 36.2948 142.893 8.66962 97.5138 9.35141C52.1345 10.0332 15.7719 38.7637 16.2958 73.5229ZM80.7597 54.8426C82.5203 56.2731 83.4832 58.2408 83.6485 60.7457L99.8026 61.1467C99.8647 56.806 98.8346 52.9611 96.7123 49.6119C94.5901 46.2627 91.5521 43.6297 87.5984 41.7128C83.6679 39.7738 78.999 38.7371 73.5916 38.6029C68.2977 38.4714 63.5608 39.2632 59.3806 40.9782C55.2005 42.6932 51.9001 45.1461 49.4794 48.337C47.0587 51.5279 45.8063 55.2821 45.7221 59.5995C45.5682 64.8927 47.1908 69.1389 50.5899 72.3379C53.9895 75.5141 58.694 77.8702 64.7032 79.4062L71.9542 81.2913C74.4842 81.9452 76.5585 82.6446 78.1769 83.3896C79.8186 84.1123 81.0252 84.9607 81.7968 85.9347C82.5689 86.886 82.95 88.0208 82.9401 89.3392C82.8824 90.7472 82.4084 91.9859 81.5181 93.055C80.6277 94.1241 79.3683 94.9454 77.74 95.5188C76.1343 96.0928 74.1955 96.3516 71.9235 96.2951C69.447 96.2337 67.2754 95.7933 65.4088 94.974C63.5648 94.1552 62.1275 92.9828 61.0968 91.4568C60.0661 89.9307 59.5105 88.0414 59.4299 85.7887L43.2758 85.3876C43.2088 90.8422 44.3353 95.3829 46.6553 99.0098C48.9753 102.637 52.2834 105.379 56.5796 107.236C60.8758 109.093 65.9435 110.094 71.7826 110.239C77.599 110.384 82.5842 109.666 86.7382 108.087C90.915 106.508 94.1444 104.167 96.4265 101.064C98.7086 97.9604 99.9157 94.2051 100.048 89.798C100.094 87.0028 99.6795 84.469 98.8037 82.1966C97.9279 79.9241 96.6025 77.902 94.8277 76.1301C93.0756 74.3588 90.8859 72.8154 88.2585 71.4997C85.6539 70.1847 82.6342 69.1094 79.1993 68.2739L73.2349 66.7618C71.6529 66.3815 70.2314 65.9484 68.9703 65.4624C67.7093 64.9764 66.6316 64.4267 65.7375 63.8134C64.8666 63.178 64.2024 62.4567 63.745 61.6497C63.3103 60.8432 63.1286 59.9179 63.1999 58.8739C63.2542 57.6022 63.6569 56.4868 64.4082 55.5279C65.16 54.5463 66.27 53.7895 67.7382 53.2576C69.2063 52.7257 71.031 52.4868 73.2121 52.5409C76.5066 52.6227 79.0224 53.3899 80.7597 54.8426ZM118.35 108.087C122.247 110.458 126.956 111.711 132.477 111.848C137.385 111.97 141.644 111.189 145.255 109.506C148.889 107.8 151.735 105.358 153.791 102.181C155.871 99.0044 157.043 95.2597 157.309 90.9467L141.735 90.5601C141.485 92.3953 140.957 93.9509 140.153 95.2268C139.349 96.48 138.336 97.421 137.116 98.05C135.918 98.6796 134.547 98.9752 133.002 98.9368C131.071 98.8889 129.391 98.3129 127.963 97.209C126.536 96.0823 125.44 94.4523 124.675 92.319C123.932 90.1636 123.599 87.5409 123.676 84.4509C123.752 81.361 124.214 78.7807 125.061 76.7102C125.932 74.6175 127.107 73.0553 128.587 72.0235C130.069 70.9691 131.775 70.4658 133.706 70.5137C136.092 70.573 138.004 71.382 139.443 72.941C140.905 74.5005 141.762 76.6246 142.013 79.3135L157.588 79.7002C157.581 75.4032 156.594 71.639 154.628 68.4073C152.685 65.1536 149.93 62.6071 146.36 60.768C142.814 58.9294 138.621 57.95 133.782 57.8299C128.306 57.694 123.563 58.7129 119.554 60.8868C115.567 63.0613 112.455 66.1554 110.219 70.1694C108.005 74.1611 106.832 78.838 106.7 84.2C106.567 89.5392 107.507 94.2686 109.52 98.388C111.532 102.485 114.476 105.718 118.35 108.087Z" fill="#FFF0B9" fill-opacity="0.16"/>
</g>
<g filter="url(#filter1_f_4_32784)">
<path d="M104.515 570.689L17.0341 63.4108L47.5 27.5L101.5 12.5L150 24.5L177.034 63.3999L122.409 567.698L104.515 570.689Z" fill="url(#paint0_linear_4_32784)"/>
</g>
</g>
<defs>
<filter id="filter0_f_4_32784" x="12.2903" y="5.33905" width="172.344" height="133.899" filterUnits="userSpaceOnUse" color-interpolation-filters="sRGB">
<feFlood flood-opacity="0" result="BackgroundImageFix"/>
<feBlend mode="normal" in="SourceGraphic" in2="BackgroundImageFix" result="shape"/>
<feGaussianBlur stdDeviation="2" result="effect1_foregroundBlur_4_32784"/>
</filter>
<filter id="filter1_f_4_32784" x="2.03406" y="-2.5" width="190" height="588.189" filterUnits="userSpaceOnUse" color-interpolation-filters="sRGB">
<feFlood flood-opacity="0" result="BackgroundImageFix"/>
<feBlend mode="normal" in="SourceGraphic" in2="BackgroundImageFix" result="shape"/>
<feGaussianBlur stdDeviation="7.5" result="effect1_foregroundBlur_4_32784"/>
</filter>
<linearGradient id="paint0_linear_4_32784" x1="119.411" y1="454.675" x2="93.9199" y2="-256.161" gradientUnits="userSpaceOnUse">
<stop stop-color="#FAE497" stop-opacity="0.31"/>
<stop offset="0.565756" stop-color="#E4DDC2" stop-opacity="0.107185"/>
<stop offset="0.864751" stop-color="#D9D9D9" stop-opacity="0"/>
</linearGradient>
<clipPath id="clip0_4_32784">
<rect width="180" height="567" fill="white"/>
</clipPath>
</defs>
</svg>
